<svg xmlns="http://www.w3.org/2000/svg" width="35" height="38" viewBox="0 0 35 38">
    <g fill="#202344" fill-rule="evenodd" stroke="#202344">
        <path d="M26.573 9.56l3.973 1.362c.068.022.136.034.195.034.25 0 .47-.15.562-.384l1.573-3.923c.06-.153.06-.32-.005-.474-.063-.15-.182-.268-.334-.328-.309-.123-.664.025-.791.342l-.939 2.342-.122-.188c-2.719-4.118-6.079-6.674-9.97-7.601-6.36-1.511-11.8 1.852-12.029 1.997-.284.18-.371.559-.195.845.179.287.554.372.838.197.047-.03 5.238-3.234 11.101-1.844 3.613.862 6.744 3.278 9.313 7.188l.19.29L26.966 8.4c-.062-.022-.13-.034-.195-.034-.254 0-.49.162-.575.414-.054.158-.043.325.03.473.073.15.195.257.347.307h0zM32.92 16.05c-.01-.329-.28-.597-.61-.597-.351.008-.619.29-.61.632 0 .251-.005 6.095-4.011 10.227-2.488 2.57-6.016 4.008-10.488 4.268l-.255.014 1.397-1.861c.097-.129.139-.29.119-.452-.022-.162-.106-.307-.236-.405-.111-.085-.237-.124-.364-.124-.182 0-.364.086-.486.244l-2.352 3.128c-.198.257-.157.623.09.837l2.961 2.547c.245.214.651.18.86-.068.216-.257.186-.649-.068-.867l-2.031-1.746.295-.016c4.853-.252 8.699-1.82 11.44-4.652 4.42-4.57 4.356-10.846 4.348-11.109h0zM1.747 20.163c1.781 6.325 7.56 9.42 7.615 9.453.31.162.673.038.825-.252.076-.145.092-.312.043-.465-.046-.158-.152-.287-.296-.363-.225-.124-5.427-3.043-7.019-8.704-.957-3.401-.423-7.116 1.587-11.042l.139-.274.761 2.865c.073.268.313.451.589.451.06 0 .106-.005.149-.021.16-.044.292-.145.376-.287.085-.14.106-.307.063-.465L5.47 6.88c-.084-.312-.401-.509-.715-.44l-4.193.878c-.157.03-.296.123-.385.26-.09.137-.123.304-.09.46.034.159.128.295.263.384.136.09.296.12.456.085l2.755-.577-.114.222c-2.173 4.25-2.745 8.288-1.7 12.01h0z" transform="translate(1 1.346)"/>
        <path d="M20.295 15.613l-.195-.077.165-.129c1.188-.917 1.895-2.364 1.895-3.871 0-2.693-2.17-4.883-4.84-4.883-2.669 0-4.84 2.189-4.84 4.883 0 1.532.718 2.993 1.928 3.905l.169.128-.195.077c-3.11 1.229-5.12 4.225-5.12 7.628 0 .367.296.665.66.665h14.95c.364 0 .66-.298.66-.665.002-3.367-2.105-6.445-5.237-7.661h0zm-6.498-4.075c0-1.96 1.578-3.552 3.52-3.552s3.52 1.593 3.52 3.552c0 1.912-1.49 3.461-3.39 3.534-.033 0-.068.005-.1.014l-.022.005-.022-.005c-.024-.005-.054-.005-.08-.009-1.916-.048-3.426-1.607-3.426-3.54h0zm-3.187 11.07l.017-.131c.385-3.431 3.16-5.984 6.604-6.066.038 0 .072-.005.11-.013l.022-.005.021.005c.03.005.06.008.093.008 3.418.034 6.295 2.646 6.696 6.07l.017.131-13.58.002z" transform="translate(1 1.346)"/>
    </g>
</svg>
