<svg xmlns="http://www.w3.org/2000/svg" width="47" height="41" viewBox="0 0 47 41">
    <g fill="#202344" fill-rule="evenodd">
        <path d="M26.45 27.508c1.388-1.049 2.3-2.67 2.3-4.53 0-3.147-2.54-5.672-5.701-5.672-3.163 0-5.701 2.527-5.701 5.673 0 1.858.91 3.48 2.3 4.529-2.635.62-4.696 2.812-5.031 5.577l-.528 4.434c-.144 1.144.623 2.194 1.726 2.432 2.3.477 4.743.764 7.236.764 2.491 0 4.887-.238 7.236-.764 1.103-.238 1.868-1.335 1.726-2.432l-.528-4.434c-.387-2.764-2.4-4.957-5.035-5.577zM23 19.498c1.917 0 3.498 1.574 3.498 3.48 0 1.907-1.581 3.481-3.498 3.481-1.917 0-3.498-1.574-3.498-3.48.048-1.907 1.581-3.481 3.498-3.481zm-6.757 18.26l.528-4.434c.288-2.194 2.107-3.814 4.312-3.814h3.833c2.205 0 4.073 1.62 4.313 3.814l.528 4.434c-4.313.953-9.153.953-13.514 0z" transform="translate(.884)"/>
        <path d="M41.878 19.118c-1.821 0-3.354 1.24-3.738 2.91l-5.508-.003c-.191-1.955-.959-3.719-2.156-5.195l3.882-3.863c.574.334 1.246.572 1.965.572 2.156 0 3.882-1.717 3.882-3.862 0-2.146-1.726-3.863-3.882-3.863S32.44 7.531 32.44 9.677c0 .715.19 1.382.575 1.955l-3.882 3.863c-1.438-1.192-3.21-1.956-5.176-2.146V7.915c1.677-.428 2.924-1.907 2.924-3.719 0-2.145-1.726-3.862-3.882-3.862-2.157 0-3.882 1.717-3.882 3.862 0 1.812 1.246 3.29 2.923 3.72v5.482c-1.965.19-3.738.953-5.175 2.145l-3.882-3.862c.335-.572.575-1.24.575-1.956 0-2.145-1.726-3.862-3.883-3.862-2.156 0-3.882 1.717-3.882 3.862 0 2.146 1.726 3.863 3.882 3.863.72 0 1.39-.19 1.966-.572l3.882 3.863c-1.198 1.43-1.965 3.193-2.156 5.149l-5.51-.002c-.431-1.669-1.917-2.909-3.739-2.909-2.156 0-3.882 1.717-3.882 3.862 0 2.146 1.726 3.863 3.882 3.863 1.822 0 3.354-1.24 3.738-2.91h5.462c.048.716.19 1.431.43 2.098.144.382.48.62.91.62.095 0 .19 0 .288-.048.48-.19.768-.716.575-1.192-.24-.764-.384-1.574-.384-2.384 0-4.29 3.498-7.818 7.857-7.818 4.362 0 7.858 3.481 7.858 7.818 0 .81-.144 1.62-.384 2.384-.19.476.096 1.002.575 1.192.479.143 1.007-.095 1.198-.572.24-.667.335-1.335.43-2.05h5.462c.43 1.668 1.916 2.908 3.738 2.908 2.156 0 3.882-1.717 3.882-3.862.005-2.192-1.72-3.907-3.877-3.907h.001zM4.121 24.934c-1.102 0-2.012-.905-2.012-2.002 0-1.097.91-2.002 2.012-2.002 1.103 0 2.012.905 2.012 2.002 0 1.095-.911 2.002-2.012 2.002zM36.368 7.723c1.102 0 2.012.905 2.012 2.002 0 1.097-.91 2.002-2.012 2.002-1.103 0-2.012-.905-2.012-2.002 0-1.095.911-2.002 2.012-2.002zM21.034 4.196c0-1.097.91-2.002 2.013-2.002 1.102 0 2.012.905 2.012 2.002 0 1.097-.91 2.002-2.012 2.002-1.15-.049-2.013-.905-2.013-2.002zM9.68 11.632c-1.103 0-2.012-.905-2.012-2.002 0-1.097.91-2.002 2.012-2.002 1.102 0 2.012.905 2.012 2.002 0 1.097-.91 2.002-2.012 2.002zm32.2 13.349c-1.103 0-2.013-.905-2.013-2.002 0-1.097.91-2.002 2.012-2.002 1.103 0 2.012.905 2.012 2.002.002 1.097-.91 2.002-2.012 2.002z" transform="translate(.884)"/>
    </g>
</svg>
