<svg xmlns="http://www.w3.org/2000/svg" width="33" height="33" viewBox="0 0 33 33">
    <g fill="#202344" fill-rule="evenodd">
        <path d="M28.803 4.197c.442.44.664.883.664 1.324l.882 8.395c0 .663-.22 1.324-.663 1.767L15.549 29.82c-.883.884-2.208.884-3.092 0l-9.276-9.276c-.884-.884-.884-2.209 0-3.092L17.317 3.314c.442-.442 1.104-.663 1.767-.663l8.393.884c.443 0 .884.22 1.326.661zM30.35 2.65c-.664-.663-1.547-1.104-2.652-1.325L19.305.441c-1.325-.22-2.65.222-3.534 1.326L1.634 15.904c-1.768 1.767-1.768 4.417 0 6.184l9.276 9.277c1.768 1.767 4.417 1.767 6.185 0L31.23 17.229c1.106-.884 1.548-2.209 1.328-3.534l-.884-8.392c-.222-1.106-.663-1.99-1.326-2.652z"/>
        <path d="M23.501 9.72c.884.883.884 2.208 0 3.091-.884.884-2.208.884-3.092 0-.884-.883-.884-2.208 0-3.092.663-.884 2.21-.884 3.092 0zm1.547-1.768c-1.767-1.768-4.417-1.768-6.184 0-1.768 1.767-1.768 4.417 0 6.184 1.767 1.768 4.416 1.768 6.184 0 1.547-1.545 1.547-4.417 0-6.184zM8.481 21.427c-.44.44-1.104.44-1.546 0-.442-.442-.442-1.105 0-1.547l.663-.884 5.523-5.523c.44-.441 1.104-.441 1.547 0 .44.441.44 1.104 0 1.547l-.664.884-5.523 5.523zM13.341 26.064c-.44.441-1.104.441-1.547 0-.44-.441-.44-1.104 0-1.547l.663-.884 4.64-4.637.883-.884c.441-.44 1.104-.44 1.547 0 .441.441.441 1.104 0 1.547l-.884.884-4.639 4.86-.663.661z"/>
    </g>
</svg>
