<svg xmlns="http://www.w3.org/2000/svg" width="41" height="38" viewBox="0 0 41 38">
    <g fill="#202344" fill-rule="evenodd">
        <path d="M40.625 4.766c0-2.517-1.577-4.49-3.59-4.49-1.998 0-3.57 1.971-3.573 4.49V28.51c0 .025.004.067.004.067.005.081.717 8.147 3.57 8.147 2.847 0 3.564-8.064 3.569-8.147 0 0 .004-.04.004-.063l.016-23.75zm-5.155 0c.001-1.356.718-2.5 1.566-2.5.843 0 1.582 1.167 1.582 2.498L38.6 27.519h-3.13V4.766zm1.564 29.796c-.525-.772-1.176-3.063-1.454-5.057h2.904c-.278 1.995-.927 4.285-1.45 5.057zM28.764.276c-.605 0-1.194.35-1.754 1.035L1.053 33.154c-.669.821-.852 1.708-.503 2.43.349.723 1.16 1.14 2.226 1.14h24.07c1.95 0 3.534-1.571 3.534-3.503l.002-30.729C30.383.384 29.035.276 28.764.276zm-1.916 34.46h-.64v-1.601H24.2v1.6h-4.657v-1.6h-2.008v1.6h-4.657v-1.6h-2.005v1.6H6.216v-1.6H4.208v1.6h-1.43c-.162 0-.28-.018-.354-.035.032-.073.09-.173.195-.298L28.376 2.799v5.168H26.76v1.988h1.616v4.61H26.76v1.99h1.616v4.612H26.76v1.988h1.616v4.611H26.76v1.988h1.616v3.465c0 .836-.685 1.516-1.529 1.516z" transform="translate(0 .678)"/>
        <path d="M23.385 16.796c-.4-.14-.85-.018-1.116.313l-9.556 11.723c-.242.298-.292.707-.125 1.052.167.346.516.566.906.566h9.556c.555 0 1.004-.444 1.004-.994V17.735c0-.423-.269-.799-.67-.94zm-1.339 11.666h-6.452l6.452-7.914v7.914z" transform="translate(0 .678)"/>
    </g>
</svg>
