<svg xmlns="http://www.w3.org/2000/svg" xmlns:xlink="http://www.w3.org/1999/xlink" width="240" height="351" viewBox="0 0 240 351">
    <defs>
        <rect id="6mt57habua" width="240" height="351" x="0" y="0" rx="11"/>
    </defs>
    <g fill="none" fill-rule="evenodd">
        <mask id="phhor27p2b" fill="#fff">
            <use xlink:href="#6mt57habua"/>
        </mask>
        <path fill="#DFE7ED" fill-rule="nonzero" d="M53.442-21H3.209C-6.847-21-15-12.847-15-2.79v125.58C-15 132.848-6.847 141 3.21 141h125.58c10.057 0 18.21-8.153 18.21-18.21V72.559l-.004-.396c-.21-9.874-8.28-17.813-18.205-17.813H71.65v-57.14C71.651-12.847 63.5-21 53.441-21zM3.305-9.592H53.46c3.809 0 6.896 3.088 6.896 6.897V60c0 3.116 2.527 5.643 5.643 5.643h62.695c3.809 0 6.897 3.087 6.897 6.896v50.156c0 3.809-3.088 6.897-6.897 6.897H3.305c-3.809 0-6.897-3.088-6.897-6.897V-2.695c0-3.809 3.088-6.897 6.897-6.897z" mask="url(#phhor27p2b)" transform="scale(-1 1) rotate(6 0 -1199.355)"/>
        <path fill="#DFE7ED" fill-rule="nonzero" d="M186.066 208.327h-54.051c-10.822 0-19.594 8.769-19.594 19.585V362.98c0 10.816 8.772 19.585 19.594 19.585h135.128c10.821 0 19.594-8.769 19.594-19.585v-54.027l-.005-.426c-.226-10.62-8.91-19.159-19.589-19.159H205.66v-61.456c0-10.816-8.773-19.585-19.594-19.585z" mask="url(#phhor27p2b)" opacity=".7" transform="scale(1 -1) rotate(5 6966.406 0)"/>
    </g>
</svg>
