<?xml version="1.0" encoding="UTF-8"?>
<svg width="1733px" height="401px" viewBox="0 0 1733 401" version="1.1" xmlns="http://www.w3.org/2000/svg" xmlns:xlink="http://www.w3.org/1999/xlink">
    <title>Group 33 CopyIcon </title>
    <defs>
        <path d="M32.0277879,0.680253421 C14.4574537,0.680253421 0.216725429,14.919581 0.216725429,32.4891763 L0.216725429,32.4891763 L0.216725429,120.252521 L0.225186943,120.942271 C0.593262808,138.194497 14.6901454,152.069907 32.0277879,152.069907 L32.0277879,152.069907 L131.839809,152.069907 L131.839809,251.897537 C131.839809,269.467133 146.080537,283.710692 163.64241,283.710692 L163.64241,283.710692 L251.392542,283.710692 C268.958645,283.710692 283.203604,269.467133 283.203604,251.897537 L283.203604,251.897537 L283.203604,32.4891763 C283.203604,14.919581 268.958645,0.680253421 251.392542,0.680253421 L251.392542,0.680253421 L32.0277879,0.680253421 Z M19.9616687,120.252521 L19.9616687,32.4891763 C19.9616687,25.8244093 25.3643455,20.4206585 32.0277879,20.4206585 L32.0277879,20.4206585 L251.392542,20.4206585 C258.055984,20.4206585 263.458661,25.8244093 263.458661,32.4891763 L263.458661,32.4891763 L263.458661,251.897537 C263.458661,258.562304 258.055984,263.966055 251.392542,263.966055 L251.392542,263.966055 L163.64241,263.966055 C156.983198,263.966055 151.580521,258.562304 151.580521,251.897537 L151.580521,251.897537 L151.580521,142.193357 C151.580521,136.738827 147.15938,132.316807 141.710165,132.316807 L141.710165,132.316807 L32.0277879,132.316807 C25.3643455,132.316807 19.9616687,126.917288 19.9616687,120.252521 L19.9616687,120.252521 Z" id="path-1"></path>
        <path d="M92.5233832,-60.2886119 C74.9572799,-60.2886119 60.7165516,-46.0450527 60.7165516,-28.4754574 L60.7165516,-28.4754574 L60.7165516,190.932904 C60.7165516,208.50673 74.9572799,222.75029 92.5233832,222.75029 L92.5233832,222.75029 L311.883907,222.75029 C329.454241,222.75029 343.694969,208.50673 343.694969,190.932904 L343.694969,190.932904 L343.694969,103.169559 C343.694969,85.6041955 329.454241,71.3606363 311.883907,71.3606363 L311.883907,71.3606363 L212.076117,71.3606363 L212.076117,-28.4754574 C212.076117,-45.8123148 198.207695,-59.9119996 180.958898,-60.2801487 L180.958898,-60.2801487 L180.269285,-60.2886119 L92.5233832,-60.2886119 Z M80.4572641,190.932904 L80.4572641,-28.4754574 C80.4572641,-35.1402244 85.8557101,-40.5439752 92.5233832,-40.5439752 L92.5233832,-40.5439752 L180.269285,-40.5439752 C186.932727,-40.5439752 192.335404,-35.1402244 192.335404,-28.4754574 L192.335404,-28.4754574 L192.335404,81.2329547 C192.335404,86.683253 196.752314,91.105273 202.20576,91.105273 L202.20576,91.105273 L311.883907,91.105273 C318.547349,91.105273 323.950026,96.5090238 323.950026,103.169559 L323.950026,103.169559 L323.950026,190.932904 C323.950026,197.597671 318.547349,203.001421 311.883907,203.001421 L311.883907,203.001421 L92.5233832,203.001421 C85.8557101,203.001421 80.4572641,197.597671 80.4572641,190.932904 L80.4572641,190.932904 Z" id="path-3"></path>
    </defs>
    <g id="Page-1" stroke="none" stroke-width="1" fill="none" fill-rule="evenodd">
        <g id="Group-32" transform="translate(0.000000, 0.438960)">
            <g id="Group-25" transform="translate(0.308835, 114.839329)">
                <g id="Group" transform="translate(0.691165, 0.721711)">
                    <path d="M521.369843,145.014563 C528.545207,145.014563 534.125576,142.534847 538.106718,137.575414 C542.08363,132.615981 544.076316,125.371485 544.076316,115.841926 C544.076316,106.710137 542.08363,99.5968209 538.106718,94.5019768 C534.125576,89.4155959 528.545207,86.8724054 521.369843,86.8724054 C513.932172,86.8724054 508.224881,89.3521219 504.243738,94.3115549 C500.262596,99.2709879 498.27414,106.316599 498.27414,115.452619 C498.27414,124.982178 500.330288,132.285916 504.442584,137.376529 C508.550649,142.467141 514.194479,145.014563 521.369843,145.014563 L521.369843,145.014563 Z M573.238925,165.960974 L544.076316,165.960974 L544.076316,151.605598 C541.377093,155.911741 537.984026,159.327238 533.897115,161.852092 C527.762517,165.635141 520.714076,167.526665 512.756022,167.526665 C504.146431,167.526665 496.543761,165.34316 489.956472,160.97192 C483.364952,156.596447 478.21189,150.528336 474.493055,142.763353 C470.774219,134.998371 468.916917,125.891971 468.916917,115.452619 C468.916917,105.144446 470.740373,96.1396053 474.395747,88.4380967 C478.046891,80.7408198 483.204183,74.7658033 489.859164,70.5215104 C496.514145,66.2856807 504.146431,64.1614185 512.756022,64.1614185 C520.714076,64.1614185 527.762517,66.1502696 533.897115,70.1322034 C537.984026,72.7868259 541.24594,76.1112909 543.682856,80.1055982 L543.682856,21.8750588 L573.238925,21.8750588 L573.238925,165.960974 Z" id="Fill-1" fill="#191C37"></path>
                    <path d="M643.035416,145.014563 C650.21078,145.014563 655.791149,142.534847 659.772291,137.575414 C663.749203,132.615981 665.74189,125.434959 665.74189,116.036579 C665.74189,106.646663 663.749203,99.4360202 659.772291,94.4088816 C655.791149,89.3859747 650.21078,86.8724054 643.035416,86.8724054 C635.860052,86.8724054 630.216223,89.4833015 626.108157,94.7008619 C621.995862,99.922654 619.939714,107.16715 619.939714,116.430118 C619.939714,125.70155 621.928169,132.776782 625.909312,137.672741 C629.890454,142.5687 635.597746,145.014563 643.035416,145.014563 M611.524738,161.2639 C604.869757,157.087313 599.712464,151.15038 596.061321,143.448872 C592.405947,135.751595 590.58249,126.742523 590.58249,116.430118 C590.58249,106.126177 592.439793,97.0197777 596.158628,89.1236156 C599.877464,81.2274536 605.030526,75.095868 611.622045,70.7203955 C618.209334,66.3491547 625.812004,64.1614185 634.421595,64.1614185 C642.379649,64.1614185 649.42809,66.1164168 655.562688,70.0348766 C659.649599,72.6443621 663.042667,76.0012693 665.74189,80.1055982 L665.74189,66.7046089 L694.904498,66.7046089 L694.904498,165.960974 L665.74189,165.960974 L665.74189,151.605598 C663.042667,155.911741 659.649599,159.327238 655.562688,161.852092 C649.42809,165.635141 642.379649,167.526665 634.421595,167.526665 C625.812004,167.526665 618.179719,165.440487 611.524738,161.2639 Z" id="Fill-3" fill="#191C37"></path>
                    <path d="M769.400092,145.014563 C776.575456,145.014563 782.151594,142.467141 786.136967,137.376529 C790.113878,132.285916 792.106565,124.982178 792.106565,115.452619 C792.106565,106.316599 790.147724,99.2709879 786.234274,94.3115549 C782.316593,89.3521219 776.706609,86.8724054 769.400092,86.8724054 C761.962421,86.8724054 756.284745,89.4155959 752.371295,94.5019768 C748.457844,99.5968209 746.499004,106.710137 746.499004,115.841926 C746.499004,125.371485 748.457844,132.615981 752.371295,137.575414 C756.284745,142.534847 761.962421,145.014563 769.400092,145.014563 L769.400092,145.014563 Z M717.14178,165.960974 L717.14178,21.8750588 L746.693619,21.8750588 C746.055063,62.0811907 746.052724,81.6209175 746.686602,80.4942389 C748.988074,76.4035179 752.287672,72.9500059 756.580898,70.1322034 C762.647803,66.1502696 769.72586,64.1614185 777.815068,64.1614185 C786.428889,64.1614185 794.027329,66.2856807 800.618848,70.5215104 C807.206137,74.7658033 812.393045,80.7408198 816.179573,88.4380967 C819.96187,96.1396053 821.853018,105.144446 821.853018,115.452619 C821.853018,125.891971 819.96187,134.998371 816.179573,142.763353 C812.393045,150.528336 807.206137,156.596447 800.618848,160.97192 C794.027329,165.34316 786.428889,167.526665 777.815068,167.526665 C769.72586,167.526665 762.647803,165.635141 756.580898,161.852092 C752.536294,159.327238 749.175663,155.745074 746.499004,151.105598 L746.499004,165.960974 L717.14178,165.960974 Z" id="Fill-5" fill="#191C37"></path>
                    <path d="M891.065242,145.014563 C898.240606,145.014563 903.816744,142.467141 907.802117,137.376529 C911.779029,132.285916 913.771715,124.982178 913.771715,115.452619 C913.771715,106.316599 911.812875,99.2709879 907.899424,94.3115549 C903.981743,89.3521219 898.37176,86.8724054 891.065242,86.8724054 C883.627571,86.8724054 877.949895,89.4155959 874.036445,94.5019768 C870.122995,99.5968209 868.164154,106.710137 868.164154,115.841926 C868.164154,125.371485 870.122995,132.615981 874.036445,137.575414 C877.949895,142.534847 883.627571,145.014563 891.065242,145.014563 L891.065242,145.014563 Z M838.806931,165.960974 L838.806931,21.8750588 L868.358769,21.8750588 L868.358769,80.6055982 C870.905685,76.2779575 874.201444,72.7868259 878.246048,70.1322034 C884.312954,66.1502696 891.39101,64.1614185 899.480218,64.1614185 C908.094039,64.1614185 915.692479,66.2856807 922.283999,70.5215104 C928.871287,74.7658033 934.058195,80.7408198 937.844723,88.4380967 C941.62702,96.1396053 943.518168,105.144446 943.518168,115.452619 C943.518168,125.891971 941.62702,134.998371 937.844723,142.763353 C934.058195,150.528336 928.871287,156.596447 922.283999,160.97192 C915.692479,165.34316 908.094039,167.526665 899.480218,167.526665 C891.39101,167.526665 884.312954,165.635141 878.246048,161.852092 C875.32609,160.029301 871.965459,156.613803 868.164154,151.605598 L868.164154,165.960974 L838.806931,165.960974 Z" id="Fill-7" fill="#191C37"></path>
                    <path d="M1008.0351,145.014563 C1015.21046,145.014563 1020.79083,142.534847 1024.77197,137.575414 C1028.74888,132.615981 1030.74157,125.434959 1030.74157,116.036579 C1030.74157,106.646663 1028.74888,99.4360202 1024.77197,94.4088816 C1020.79083,89.3859747 1015.21046,86.8724054 1008.0351,86.8724054 C1000.85973,86.8724054 995.215904,89.4833015 991.107839,94.7008619 C986.995543,99.922654 984.939395,107.16715 984.939395,116.430118 C984.939395,125.70155 986.927851,132.776782 990.908994,137.672741 C994.890136,142.5687 1000.59743,145.014563 1008.0351,145.014563 M976.52442,161.2639 C969.869439,157.087313 964.712146,151.15038 961.061002,143.448872 C957.405628,135.751595 955.582172,126.742523 955.582172,116.430118 C955.582172,106.126177 957.439474,97.0197777 961.15831,89.1236156 C964.877145,81.2274536 970.030207,75.095868 976.621727,70.7203955 C983.209016,66.3491547 990.811686,64.1614185 999.421277,64.1614185 C1007.37933,64.1614185 1014.42777,66.1164168 1020.56237,70.0348766 C1024.64928,72.6443621 1028.04235,76.167936 1030.74157,80.6055982 L1030.74157,66.7046089 L1059.90418,66.7046089 L1059.90418,165.960974 L1030.74157,165.960974 C1031.35338,155.154707 1031.34096,150.316756 1030.7043,151.447121 C1028.32012,155.680148 1024.93948,159.147958 1020.56237,161.852092 C1014.42777,165.635141 1007.37933,167.526665 999.421277,167.526665 C990.811686,167.526665 983.1794,165.440487 976.52442,161.2639 Z" id="Fill-9" fill="#191C37"></path>
                    <path d="M1136.46523,19.6217328 C1138.57215,19.6217328 1140.64945,19.7571439 1142.69713,20.0152714 C1144.73636,20.2818621 1146.81366,20.6796323 1148.92481,21.2043505 L1148.92481,32.0837892 C1145.23136,31.0301212 1141.73675,30.5011715 1138.44099,30.5011715 C1135.14523,30.5011715 1132.21332,31.063974 1129.64102,32.1768843 C1127.07295,33.3024894 1125.02526,35.3802041 1123.51065,38.4100283 C1121.99604,41.4483157 1121.23873,45.7349246 1121.23873,51.2698549 L1121.2379,66.8967328 L1146.55135,66.8971467 L1146.55135,76.5917379 L1121.2379,76.5917328 L1121.23873,165.996942 L1109.17262,165.996942 L1109.1719,76.5917328 L1089.5969,76.5917379 L1089.5969,66.8971467 L1109.1719,66.8967328 L1109.17262,49.0948135 C1109.17262,38.9389781 1111.64338,31.4871338 1116.58913,26.7392808 C1121.53489,21.9956593 1128.16025,19.6217328 1136.46523,19.6217328 Z" id="Fill-11" fill="#191C37"></path>
                    <path d="M1209.4424,156.700968 C1219.98968,156.700968 1228.06197,153.142194 1233.67195,146.020414 C1239.27347,138.898634 1242.07423,128.87821 1242.07423,115.95491 C1242.07423,102.76925 1239.2354,92.6811201 1233.57041,85.6905201 C1227.9012,78.6999201 1219.8543,75.20462 1209.4424,75.20462 C1199.02628,75.20462 1190.88207,78.8014784 1185.01824,85.986732 C1179.15018,93.1719855 1176.21827,103.293968 1176.21827,116.348448 C1176.21827,129.27598 1179.15018,139.228699 1185.01824,146.215068 C1190.88207,153.209899 1199.02628,156.700968 1209.4424,156.700968 M1184.62055,161.05105 C1177.96557,156.832147 1172.82097,150.937531 1169.19521,143.350276 C1165.56945,135.771484 1163.75869,126.770874 1163.75869,116.348448 C1163.75869,105.934485 1165.6033,96.8365495 1169.29675,89.0546406 C1172.98597,81.2727317 1178.16019,75.2384728 1184.8194,70.951864 C1191.47438,66.6694867 1199.15743,64.5240665 1207.8601,64.5240665 C1217.21854,64.5240665 1225.09621,66.834519 1231.49311,71.4469609 C1234.62642,73.7082826 1238.20385,78.2030229 1242.22539,84.9311818 L1242.24078,84.6055982 L1242.07423,66.8937614 L1254.13612,66.8937614 L1254.13612,165.997789 L1242.07423,165.997789 C1242.68825,152.064341 1242.66831,145.817894 1242.01442,147.258448 C1239.56628,152.651759 1236.06021,157.019889 1231.49311,160.3613 C1225.09621,165.045679 1217.21854,167.381521 1207.8601,167.381521 C1199.02628,167.381521 1191.27976,165.274185 1184.62055,161.05105 Z" id="Fill-13" fill="#191C37"></path>
                    <path d="M1328.89106,167.383214 C1319.39724,167.383214 1311.18957,165.242025 1304.27652,160.951185 C1297.35077,156.673039 1291.97771,150.706486 1288.1531,143.051525 C1284.3285,135.405027 1282.41619,126.505976 1282.41619,116.345909 C1282.41619,106.063126 1284.36234,96.9990428 1288.25464,89.15366 C1292.13424,81.3040455 1297.58346,75.2401655 1304.56421,70.9535566 C1311.55342,66.6669477 1319.79493,64.5215275 1329.28875,64.5215275 C1335.88027,64.5215275 1342.24333,65.6809854 1348.3737,67.9872063 C1354.50829,70.2934273 1359.61482,73.496747 1363.70596,77.5760076 L1358.95059,87.0717137 C1353.81445,82.9882216 1348.92793,79.9541657 1344.3164,77.9737778 C1339.70065,75.9933899 1334.82258,75.0074276 1329.68221,75.0074276 C1319.1307,75.0074276 1310.72842,78.6677599 1304.4669,85.9884246 C1298.20115,93.3048577 1295.07885,103.42684 1295.07885,116.345909 C1295.07885,129.142262 1298.1673,139.069591 1304.37382,146.119433 C1310.56342,153.177739 1319.00801,156.70266 1329.68221,156.70266 C1334.69143,156.70266 1339.54411,155.746319 1344.21909,153.833637 C1348.89831,151.925186 1353.81445,148.924983 1358.95059,144.833028 L1363.70596,154.129849 C1359.47943,158.217572 1354.2756,161.450513 1348.07754,163.820208 C1341.87948,166.198366 1335.48681,167.383214 1328.89106,167.383214" id="Fill-15" fill="#191C37"></path>
                    <path d="M1403.64938,36.0377944 L1403.64932,66.8937944 L1432.91353,66.8946077 L1432.91353,76.5891989 L1403.64932,76.5887944 L1403.64938,135.53536 C1403.64938,141.074522 1404.40246,145.361131 1405.9213,148.395187 C1407.43591,151.429243 1409.54706,153.536579 1412.25051,154.725658 C1414.95397,155.910505 1418.01704,156.502929 1421.44818,156.502929 C1423.5551,156.502929 1425.39971,156.375981 1426.98201,156.10939 C1428.56431,155.847031 1430.34546,155.385787 1432.32122,154.725658 L1432.32122,165.600865 C1430.34546,166.125583 1428.33585,166.523353 1426.2924,166.789944 C1424.24471,167.052303 1421.97279,167.183482 1419.46819,167.183482 C1411.16321,167.183482 1404.43631,164.813788 1399.29594,160.065934 C1394.15557,155.318081 1391.58327,147.933943 1391.58327,137.909287 L1391.58232,76.5887944 L1372.00332,76.5891989 L1372.00332,66.8946077 L1391.58232,66.8937944 L1391.58327,40.5867624 L1403.64938,36.0377944 Z" id="Fill-17" fill="#191C37"></path>
                    <path d="M1495.2127,156.700968 C1505.75574,156.700968 1513.89995,153.209899 1519.63263,146.215068 C1525.36953,139.228699 1528.24222,129.140569 1528.24222,115.95491 C1528.24222,103.027377 1525.33569,93.0069532 1519.53532,85.8894052 C1513.73495,78.763394 1505.62459,75.20462 1495.2127,75.20462 C1484.92773,75.20462 1476.85121,78.763394 1470.98315,85.8894052 C1465.11932,93.0069532 1462.18318,103.027377 1462.18318,115.95491 C1462.18318,129.140569 1465.05163,139.228699 1470.78854,146.215068 C1476.52121,153.209899 1484.66119,156.700968 1495.2127,156.700968 M1495.41154,167.381521 C1486.18003,167.381521 1478.17121,165.274185 1471.38084,161.05105 C1464.59048,156.832147 1459.28511,150.865594 1455.4605,143.151391 C1451.63167,135.437187 1449.7236,126.373104 1449.7236,115.95491 C1449.7236,105.536715 1451.63167,96.472632 1455.4605,88.7541971 C1459.28511,81.0399938 1464.59048,75.0734405 1471.38084,70.8545372 C1478.17121,66.6356339 1486.18003,64.5240665 1495.41154,64.5240665 C1504.50344,64.5240665 1512.4488,66.6356339 1519.2434,70.8545372 C1526.02953,75.0734405 1531.30529,81.0399938 1535.0622,88.7541971 C1538.81911,96.472632 1540.69757,105.536715 1540.69757,115.95491 C1540.69757,126.373104 1538.81911,135.437187 1535.0622,143.151391 C1531.30529,150.865594 1526.02953,156.832147 1519.2434,161.05105 C1512.4488,165.274185 1504.50344,167.381521 1495.41154,167.381521" id="Fill-19" fill="#191C37"></path>
                    <path d="M1569.17649,165.999058 L1569.17649,94.3919553 C1569.17649,89.9149245 1569.07918,85.3278721 1568.88033,80.6434931 C1568.68149,75.9675772 1568.24995,71.3847564 1567.59418,66.8950309 L1579.06376,66.8950309 C1579.69006,80.1199764 1580.207,86.1941987 1580.61458,85.1176978 C1582.86817,79.1655259 1586.40502,74.4764842 1591.22719,71.0546918 C1597.35756,66.7003773 1604.24523,64.5253359 1611.89444,64.5253359 C1613.6079,64.5253359 1615.15635,64.5930415 1616.53981,64.7199894 C1617.92327,64.8554006 1619.27711,65.0542857 1620.59711,65.3166448 L1620.20365,76.390737 C1617.69481,75.7348393 1614.59366,75.4047746 1610.90444,75.4047746 C1603.65292,75.4047746 1597.85256,77.0508663 1593.50334,80.3472812 C1589.15412,83.6436961 1586.0149,87.7652726 1584.10683,92.7120108 C1582.19453,97.658749 1581.2426,102.698582 1581.2426,107.844206 L1581.2426,165.999058 L1569.17649,165.999058 Z" id="Fill-21" fill="#191C37"></path>
                    <path d="M1646.70046,66.8963003 L1682.50942,153.6323 L1718.69102,66.8963003 L1730.75714,66.8963003 L1684.27804,176.283111 C1680.85113,183.929609 1676.99268,190.099279 1672.71115,194.779426 C1668.42116,199.459574 1663.61079,202.988727 1658.27158,205.362653 C1652.93236,207.73658 1647.09815,209.581556 1640.76893,210.901815 L1638.39548,201.406109 C1644.45815,199.954671 1649.60275,198.240873 1653.82082,196.264717 C1658.03888,194.284329 1661.56734,191.715749 1664.40194,188.550514 C1667.23655,185.385278 1669.77077,181.162144 1672.01731,175.889572 L1676.15873,166.085294 C1676.13568,166.116452 1676.11257,166.147677 1676.08938,166.178968 L1633.84742,66.8963003 L1646.70046,66.8963003 Z" id="Fill-23" fill="#191C37"></path>
                    <mask id="mask-2" fill="white">
                        <use xlink:href="#path-1"></use>
                    </mask>
                    <g id="Clip-27"></g>
                    <polygon id="Fill-26" fill="#191C37" mask="url(#mask-2)" points="-9.26863193 293.202166 292.688962 293.202166 292.688962 -8.81545269 -9.26863193 -8.81545269"></polygon>
                    <mask id="mask-4" fill="white">
                        <use xlink:href="#path-3"></use>
                    </mask>
                    <g id="Clip-30"></g>
                    <polygon id="Fill-29" fill="#191C37" mask="url(#mask-4)" points="51.2269634 232.237533 353.184557 232.237533 353.184557 -69.7800864 51.2269634 -69.7800864"></polygon>
                </g>
            </g>
            <g id="Group-28" transform="translate(65.000000, 60.607276)"></g>
            <g id="Group-31" transform="translate(125.535799, 0.059242)"></g>
        </g>
    </g>
</svg>