<?xml version="1.0" encoding="UTF-8"?>
<svg width="264px" height="56px" viewBox="0 0 264 56" version="1.1" xmlns="http://www.w3.org/2000/svg" xmlns:xlink="http://www.w3.org/1999/xlink">
    <title>Group 33 Copy 5Icon </title>
    <defs>
        <filter id="filter-1">
            <feColorMatrix in="SourceGraphic" type="matrix" values="0 0 0 0 1.000000 0 0 0 0 1.000000 0 0 0 0 1.000000 0 0 0 1.000000 0"></feColorMatrix>
        </filter>
        <filter id="filter-2">
            <feColorMatrix in="SourceGraphic" type="matrix" values="0 0 0 0 0.125490 0 0 0 0 0.137255 0 0 0 0 0.266667 0 0 0 1.000000 0"></feColorMatrix>
        </filter>
        <path d="M4.89291856,0.0715133118 C2.2302313,0.0715133118 0.0721274509,2.25026116 0.0721274509,4.93857053 L0.0721274509,4.93857053 L0.0721274509,18.3671679 L0.0734097468,18.4727061 C0.129189615,21.112455 2.26549444,23.2355201 4.89291856,23.2355201 L4.89291856,23.2355201 L20.01888,23.2355201 L20.01888,38.5100641 C20.01888,41.1983734 22.1769838,43.3777687 24.8383888,43.3777687 L24.8383888,43.3777687 L38.1364375,43.3777687 C40.7984836,43.3777687 42.9572286,41.1983734 42.9572286,38.5100641 L42.9572286,38.5100641 L42.9572286,4.93857053 C42.9572286,2.25026116 40.7984836,0.0715133118 38.1364375,0.0715133118 L38.1364375,0.0715133118 L4.89291856,0.0715133118 Z M3.06436473,18.3671679 L3.06436473,4.93857053 C3.06436473,3.91879999 3.88311061,3.09197652 4.89291856,3.09197652 L4.89291856,3.09197652 L38.1364375,3.09197652 C39.1462454,3.09197652 39.9649913,3.91879999 39.9649913,4.93857053 L39.9649913,4.93857053 L39.9649913,38.5100641 C39.9649913,39.5298346 39.1462454,40.3566581 38.1364375,40.3566581 L38.1364375,40.3566581 L24.8383888,40.3566581 C23.829222,40.3566581 23.0104761,39.5298346 23.0104761,38.5100641 L23.0104761,38.5100641 L23.0104761,21.7243173 C23.0104761,20.8897241 22.3404765,20.2131145 21.514678,20.2131145 L21.514678,20.2131145 L4.89291856,20.2131145 C3.88311061,20.2131145 3.06436473,19.3869385 3.06436473,18.3671679 L3.06436473,18.3671679 Z" id="path-3"></path>
        <path d="M4.88682596,0.00712220692 C2.22477986,0.00712220692 0.0666760052,2.18651752 0.0666760052,4.8748269 L0.0666760052,4.8748269 L0.0666760052,38.4463204 C0.0666760052,41.1352773 2.22477986,43.3146726 4.88682596,43.3146726 L4.88682596,43.3146726 L38.1297038,43.3146726 C40.792391,43.3146726 42.9504949,41.1352773 42.9504949,38.4463204 L42.9504949,38.4463204 L42.9504949,25.017723 C42.9504949,22.3300611 40.792391,20.1506658 38.1297038,20.1506658 L38.1297038,20.1506658 L23.0043835,20.1506658 L23.0043835,4.8748269 C23.0043835,2.22212856 20.9027007,0.0647473356 18.2887406,0.00841715363 L18.2887406,0.00841715363 L18.1842335,0.00712220692 L4.88682596,0.00712220692 Z M3.05827214,38.4463204 L3.05827214,4.8748269 C3.05827214,3.85505636 3.87637686,3.02823289 4.88682596,3.02823289 L4.88682596,3.02823289 L18.1842335,3.02823289 C19.1940415,3.02823289 20.0127874,3.85505636 20.0127874,4.8748269 L20.0127874,4.8748269 L20.0127874,21.6612211 C20.0127874,22.4951668 20.6821458,23.1717765 21.5085854,23.1717765 L21.5085854,23.1717765 L38.1297038,23.1717765 C39.1395117,23.1717765 39.9582576,23.9985999 39.9582576,25.017723 L39.9582576,25.017723 L39.9582576,38.4463204 C39.9582576,39.466091 39.1395117,40.2929144 38.1297038,40.2929144 L38.1297038,40.2929144 L4.88682596,40.2929144 C3.87637686,40.2929144 3.05827214,39.466091 3.05827214,38.4463204 L3.05827214,38.4463204 Z" id="path-5"></path>
    </defs>
    <g id="UI" stroke="none" stroke-width="1" fill="none" fill-rule="evenodd">
        <g id="Group-33-Copy-5" transform="translate(-1026.000000, -1521.000000)" filter="url(#filter-1)">
            <g transform="translate(1026.876812, 1521.000000)" filter="url(#filter-2)" id="Group-33-Copy">
                <g transform="translate(0.000000, 0.498845)">
                    <g id="Group-32" transform="translate(0.000000, 0.067165)">
                        <g id="Group-25" transform="translate(70.969622, 12.216150)" fill="#FFFFFF">
                            <path d="M8.08038706,19.2133071 C9.16777391,19.2133071 10.013448,18.8338878 10.6167682,18.075049 C11.2194472,17.3162102 11.5214279,16.2077358 11.5214279,14.7496258 C11.5214279,13.3523783 11.2194472,12.2639756 10.6167682,11.4844177 C10.013448,10.7061547 9.16777391,10.3170232 8.08038706,10.3170232 C6.95324904,10.3170232 6.08834052,10.6964426 5.48502034,11.4552814 C4.88170016,12.2141202 4.58036064,13.2921633 4.58036064,14.6900583 C4.58036064,16.1481683 4.89195852,17.2657073 5.51515429,18.0446177 C6.13770891,18.8235282 6.99300021,19.2133071 8.08038706,19.2133071 L8.08038706,19.2133071 Z M15.9408604,22.4183003 L11.5214279,22.4183003 L11.5214279,20.221796 C11.1123755,20.8806753 10.5981749,21.4032779 9.97882601,21.7896036 C9.04916155,22.3684448 7.98100914,22.6578654 6.77500992,22.6578654 C5.47027394,22.6578654 4.31813115,22.3237692 3.31986386,21.6549292 C2.32095542,20.9854417 1.54003727,20.0569649 0.976468261,18.8688513 C0.412899252,17.6807377 0.131435321,16.2873751 0.131435321,14.6900583 C0.131435321,13.1128132 0.407770068,11.7349899 0.961721859,10.5565884 C1.5150325,9.37883434 2.2965918,8.46460196 3.30511746,7.81518618 C4.31364311,7.16706536 5.47027394,6.84203373 6.77500992,6.84203373 C7.98100914,6.84203373 9.04916155,7.14634621 9.97882601,7.75561864 C10.5981749,8.16180025 11.0924999,8.67047391 11.4618011,9.2816396 L11.4618011,0.371832481 L15.9408604,0.371832481 L15.9408604,22.4183003 Z" id="Fill-1"></path>
                            <path d="M26.5181339,19.2133071 C27.6055207,19.2133071 28.4511948,18.8338878 29.054515,18.075049 C29.657194,17.3162102 29.9591747,16.2174479 29.9591747,14.7794096 C29.9591747,13.3426662 29.657194,12.2393716 29.054515,11.4701733 C28.4511948,10.7016224 27.6055207,10.3170232 26.5181339,10.3170232 C25.430747,10.3170232 24.5754557,10.7165143 23.9529011,11.5148489 C23.3297053,12.3138311 23.0181074,13.4223054 23.0181074,14.8396246 C23.0181074,16.2582388 23.319447,17.3408142 23.9227671,18.0899409 C24.5260873,18.8390675 25.3909958,19.2133071 26.5181339,19.2133071 M21.7428643,21.6996048 C20.7343386,21.0605486 19.9527793,20.1521435 19.3994687,18.973742 C18.8455169,17.795988 18.5691821,16.4175172 18.5691821,14.8396246 C18.5691821,13.263027 18.850646,11.8696643 19.4142151,10.6614791 C19.9777841,9.45329378 20.7587022,8.51510488 21.7576107,7.84561743 C22.7558779,7.17677746 23.9080207,6.84203373 25.2127567,6.84203373 C26.4187559,6.84203373 27.4869083,7.14116642 28.4165728,7.74072675 C29.0359217,8.14000199 29.5501223,8.6536396 29.9591747,9.2816396 L29.9591747,7.23116522 L34.3786072,7.23116522 L34.3786072,22.4183003 L29.9591747,22.4183003 L29.9591747,20.221796 C29.5501223,20.8806753 29.0359217,21.4032779 28.4165728,21.7896036 C27.4869083,22.3684448 26.4187559,22.6578654 25.2127567,22.6578654 C23.9080207,22.6578654 22.7513899,22.338661 21.7428643,21.6996048 Z" id="Fill-3"></path>
                            <path d="M45.6680036,19.2133071 C46.7553905,19.2133071 47.6004234,18.8235282 48.2043848,18.0446177 C48.8070638,17.2657073 49.1090444,16.1481683 49.1090444,14.6900583 C49.1090444,13.2921633 48.812193,12.2141202 48.2191312,11.4552814 C47.6254282,10.6964426 46.7752661,10.3170232 45.6680036,10.3170232 C44.5408656,10.3170232 43.6804451,10.7061547 43.0873833,11.4844177 C42.4943215,12.2639756 42.19747,13.3523783 42.19747,14.7496258 C42.19747,16.2077358 42.4943215,17.3162102 43.0873833,18.075049 C43.6804451,18.8338878 44.5408656,19.2133071 45.6680036,19.2133071 L45.6680036,19.2133071 Z M37.7485447,22.4183003 L37.7485447,0.371832481 L42.2269628,0.371832481 C42.1301932,6.52373979 42.1298388,9.51349736 42.2258996,9.3411052 C42.5746749,8.71518733 43.0747107,8.18676829 43.7253255,7.75561864 C44.6447316,7.14634621 45.717372,6.84203373 46.9432468,6.84203373 C48.248624,6.84203373 49.4001256,7.16706536 50.399034,7.81518618 C51.3973013,8.46460196 52.1833487,9.37883434 52.757176,10.5565884 C53.3303623,11.7349899 53.6169554,13.1128132 53.6169554,14.6900583 C53.6169554,16.2873751 53.3303623,17.6807377 52.757176,18.8688513 C52.1833487,20.0569649 51.3973013,20.9854417 50.399034,21.6549292 C49.4001256,22.3237692 48.248624,22.6578654 46.9432468,22.6578654 C45.717372,22.6578654 44.6447316,22.3684448 43.7253255,21.7896036 C43.1123881,21.4032779 42.6031029,20.8551738 42.19747,20.1452914 L42.19747,22.4183003 L37.7485447,22.4183003 Z" id="Fill-5"></path>
                            <path d="M64.1056863,19.2133071 C65.1930732,19.2133071 66.0381061,18.8235282 66.6420674,18.0446177 C67.2447465,17.2657073 67.5467271,16.1481683 67.5467271,14.6900583 C67.5467271,13.2921633 67.2498757,12.2141202 66.6568138,11.4552814 C66.0631109,10.6964426 65.2129488,10.3170232 64.1056863,10.3170232 C62.9785483,10.3170232 62.1181278,10.7061547 61.525066,11.4844177 C60.9320042,12.2639756 60.6351527,13.3523783 60.6351527,14.7496258 C60.6351527,16.2077358 60.9320042,17.3162102 61.525066,18.075049 C62.1181278,18.8338878 62.9785483,19.2133071 64.1056863,19.2133071 L64.1056863,19.2133071 Z M56.1862274,22.4183003 L56.1862274,0.371832481 L60.6646455,0.371832481 L60.6646455,9.35814419 C61.0506165,8.69597544 61.5500708,8.16180025 62.1630082,7.75561864 C63.0824143,7.14634621 64.1550547,6.84203373 65.3809295,6.84203373 C66.6863066,6.84203373 67.8378083,7.16706536 68.8367167,7.81518618 C69.834984,8.46460196 70.6210313,9.37883434 71.1948587,10.5565884 C71.7680449,11.7349899 72.0546381,13.1128132 72.0546381,14.6900583 C72.0546381,16.2873751 71.7680449,17.6807377 71.1948587,18.8688513 C70.6210313,20.0569649 69.834984,20.9854417 68.8367167,21.6549292 C67.8378083,22.3237692 66.6863066,22.6578654 65.3809295,22.6578654 C64.1550547,22.6578654 63.0824143,22.3684448 62.1630082,21.7896036 C61.7205046,21.5106999 61.2112195,20.9880974 60.6351527,20.221796 L60.6351527,22.4183003 L56.1862274,22.4183003 Z" id="Fill-7"></path>
                            <path d="M81.8318231,19.2133071 C82.9192099,19.2133071 83.764884,18.8338878 84.3682042,18.075049 C84.9708832,17.3162102 85.2728639,16.2174479 85.2728639,14.7794096 C85.2728639,13.3426662 84.9708832,12.2393716 84.3682042,11.4701733 C83.764884,10.7016224 82.9192099,10.3170232 81.8318231,10.3170232 C80.7444362,10.3170232 79.8891449,10.7165143 79.2665903,11.5148489 C78.6433945,12.3138311 78.3317966,13.4223054 78.3317966,14.8396246 C78.3317966,16.2582388 78.6331362,17.3408142 79.2364563,18.0899409 C79.8397765,18.8390675 80.704685,19.2133071 81.8318231,19.2133071 M77.0565534,21.6996048 C76.0480278,21.0605486 75.2664685,20.1521435 74.7131579,18.973742 C74.1592061,17.795988 73.8828713,16.4175172 73.8828713,14.8396246 C73.8828713,13.263027 74.1643352,11.8696643 74.7279043,10.6614791 C75.2914733,9.45329378 76.0723914,8.51510488 77.0712999,7.84561743 C78.0695671,7.17677746 79.2217099,6.84203373 80.5264459,6.84203373 C81.7324451,6.84203373 82.8005975,7.14116642 83.730262,7.74072675 C84.3496109,8.14000199 84.8638115,8.67914113 85.2728639,9.35814419 L85.2728639,7.23116522 L89.6922964,7.23116522 L89.6922964,22.4183003 L85.2728639,22.4183003 C85.3655806,20.7648423 85.3636979,20.0245914 85.2672158,20.1975476 C84.9059065,20.8452395 84.3935886,21.3758463 83.730262,21.7896036 C82.8005975,22.3684448 81.7324451,22.6578654 80.5264459,22.6578654 C79.2217099,22.6578654 78.0650791,22.338661 77.0565534,21.6996048 Z" id="Fill-9"></path>
                            <path d="M101.294701,0.0270529191 C101.613993,0.0270529191 101.928797,0.0477720665 102.239112,0.0872679413 C102.548145,0.128058763 102.862949,0.188921258 103.182882,0.269207954 L103.182882,1.93386195 C102.62316,1.77264109 102.093572,1.69170692 101.594117,1.69170692 C101.094663,1.69170692 100.650348,1.77782087 100.26053,1.94810637 C99.8713529,2.12033428 99.5610373,2.4382437 99.3315064,2.90183462 C99.1019754,3.36672049 98.9872099,4.022611 98.9872099,4.86950615 L98.9870647,7.26005292 L102.823198,7.26062526 L102.823198,8.74398671 L98.9870647,8.74305292 L98.9872099,22.4238038 L97.1586561,22.4238038 L97.1580647,8.74305292 L94.1920647,8.74398671 L94.1920647,7.26062526 L97.1580647,7.26005292 L97.1586561,4.53670485 C97.1586561,2.98276879 97.5330865,1.84256821 98.2825884,1.1161031 C99.0320903,0.390285472 100.036128,0.0270529191 101.294701,0.0270529191 Z" id="Fill-11"></path>
                            <path d="M112.35399,21.0014343 C113.952371,21.0014343 115.175682,20.4569092 116.025844,19.3672116 C116.874724,18.2775139 117.299164,16.744297 117.299164,14.7669134 C117.299164,12.7493864 116.868953,11.2058099 116.010456,10.1361839 C115.151318,9.06655794 113.931855,8.53174495 112.35399,8.53174495 C110.775484,8.53174495 109.541274,9.0820973 108.652643,10.1815071 C107.763371,11.2809168 107.319055,12.8296731 107.319055,14.8271284 C107.319055,16.8051595 107.763371,18.3280168 108.652643,19.3969953 C109.541274,20.4672688 110.775484,21.0014343 112.35399,21.0014343 M108.592375,21.6670369 C107.583849,21.021506 106.804213,20.1195756 106.25475,18.9586559 C105.705286,17.7990311 105.430875,16.4218553 105.430875,14.8271284 C105.430875,13.2336965 105.710415,11.8416287 106.270137,10.6509252 C106.829218,9.46022174 107.613342,8.53692473 108.622509,7.88103423 C109.631035,7.22579119 110.795359,6.8975222 112.1142,6.8975222 C113.53242,6.8975222 114.726237,7.25104265 115.695653,7.95678861 C116.170488,8.30279158 116.712628,8.99052811 117.322071,10.0199982 L117.324402,9.97018091 L117.299164,7.26010728 L119.127076,7.26010728 L119.127076,22.4239333 L117.299164,22.4239333 C117.392215,20.2919879 117.389193,19.3362242 117.290099,19.5566422 C116.919097,20.3818682 116.387771,21.0502323 115.695653,21.5614988 C114.726237,22.2782518 113.53242,22.6356571 112.1142,22.6356571 C110.775484,22.6356571 109.601542,22.3132153 108.592375,21.6670369 Z" id="Fill-13"></path>
                            <path d="M130.455775,22.6359161 C129.017039,22.6359161 127.773212,22.3082945 126.725576,21.6517566 C125.676017,20.997161 124.86176,20.0842236 124.282162,18.9129443 C123.702564,17.7429599 123.412765,16.3813234 123.412765,14.8267399 C123.412765,13.2533797 123.707693,11.8664917 124.297549,10.6660761 C124.885482,9.46501304 125.71128,8.53718372 126.769175,7.88129321 C127.828351,7.2254027 129.077307,6.89713371 130.516043,6.89713371 C131.514951,6.89713371 132.479238,7.07454141 133.408261,7.42741439 C134.337926,7.78028737 135.111791,8.2704247 135.731781,8.89458902 L135.011131,10.3475192 C134.232777,9.72270744 133.492251,9.25846904 132.7934,8.95545151 C132.093908,8.65243398 131.354664,8.50157269 130.57567,8.50157269 C128.976647,8.50157269 127.703327,9.06163714 126.754428,10.181766 C125.804888,11.3012475 125.331721,12.8500038 125.331721,14.8267399 C125.331721,16.7846993 125.799759,18.3036718 126.740323,19.3823624 C127.678322,20.462348 128.958053,21.0016933 130.57567,21.0016933 C131.334789,21.0016933 132.070185,20.8553643 132.778654,20.5627064 C133.487763,20.2706959 134.232777,19.8116373 135.011131,19.1855305 L135.731781,20.6080295 C135.091274,21.2334888 134.302662,21.7281584 133.363381,22.0907435 C132.424099,22.4546235 131.455325,22.6359161 130.455775,22.6359161" id="Fill-15"></path>
                            <path d="M141.784987,2.53886106 L141.7842,7.25986106 L146.219807,7.26023677 L146.219807,8.74359823 L141.7842,8.74286106 L141.784987,17.7629021 C141.784987,18.6104447 141.899111,19.2663352 142.129283,19.7305736 C142.358814,20.194812 142.678747,20.5172537 143.08844,20.6991938 C143.498134,20.8804863 143.962325,20.9711326 144.482296,20.9711326 C144.801588,20.9711326 145.081128,20.9517084 145.320917,20.9109175 C145.560707,20.8707742 145.83063,20.8001996 146.130046,20.6991938 L146.130046,22.3632003 C145.83063,22.443487 145.526085,22.5043495 145.21641,22.5451403 C144.906095,22.5852836 144.561798,22.6053553 144.182239,22.6053553 C142.923665,22.6053553 141.90424,22.2427702 141.125246,21.5163051 C140.346251,20.78984 139.956433,19.659999 139.956433,18.1261346 L139.9562,8.74286106 L136.9892,8.74359823 L136.9892,7.26023677 L139.9562,7.25986106 L139.956433,3.23489492 L141.784987,2.53886106 Z" id="Fill-17"></path>
                            <path d="M155.660902,21.0014343 C157.258643,21.0014343 158.492852,20.4672688 159.361608,19.3969953 C160.231004,18.3280168 160.666344,16.7844403 160.666344,14.7669134 C160.666344,12.7888823 160.225875,11.2556654 159.346861,10.1666152 C158.467848,9.07627004 157.238767,8.53174495 155.660902,8.53174495 C154.102271,8.53174495 152.87832,9.07627004 151.989048,10.1666152 C151.100417,11.2556654 150.65546,12.7888823 150.65546,14.7669134 C150.65546,16.7844403 151.090159,18.3280168 151.959555,19.3969953 C152.828311,20.4672688 154.061879,21.0014343 155.660902,21.0014343 M155.691036,22.6356571 C154.292051,22.6356571 153.078358,22.3132153 152.049316,21.6670369 C151.020274,21.021506 150.216274,20.1085686 149.636676,18.9282246 C149.056437,17.7478807 148.76728,16.3609928 148.76728,14.7669134 C148.76728,13.172834 149.056437,11.785946 149.636676,10.6049546 C150.216274,9.42461071 151.020274,8.51167327 152.049316,7.86614234 C153.078358,7.2206114 154.292051,6.8975222 155.691036,6.8975222 C157.068863,6.8975222 158.272939,7.2206114 159.302622,7.86614234 C160.331023,8.51167327 161.130535,9.42461071 161.699874,10.6049546 C162.269214,11.785946 162.553883,13.172834 162.553883,14.7669134 C162.553883,16.3609928 162.269214,17.7478807 161.699874,18.9282246 C161.130535,20.1085686 160.331023,21.021506 159.302622,21.6670369 C158.272939,22.3132153 157.068863,22.6356571 155.691036,22.6356571" id="Fill-19"></path>
                            <path d="M166.869706,22.4241275 L166.869706,11.4675834 C166.869706,10.7825566 166.85496,10.0806955 166.824826,9.36394245 C166.794692,8.64848439 166.729295,7.94727075 166.629917,7.26030152 L168.368069,7.26030152 C168.462981,9.28383959 168.54132,10.2132514 168.603087,10.0485369 C168.944606,9.13779991 169.480596,8.42033349 170.211369,7.89676783 C171.140392,7.23051774 172.184181,6.89771644 173.343377,6.89771644 C173.603042,6.89771644 173.837702,6.90807601 174.047357,6.92750021 C174.257012,6.94821936 174.46218,6.97865061 174.662218,7.01879396 L174.602591,8.71323173 C174.22239,8.61287336 173.752429,8.56237044 173.193348,8.56237044 C172.094421,8.56237044 171.215407,8.81423757 170.556307,9.31861932 C169.897207,9.82300106 169.421475,10.4536401 169.132317,11.2105365 C168.842518,11.9674328 168.69826,12.7385736 168.69826,13.5259012 L168.69826,22.4241275 L166.869706,22.4241275 Z" id="Fill-21"></path>
                            <path d="M178.618036,7.26049576 L184.044229,20.5324958 L189.527809,7.26049576 L191.356363,7.26049576 L184.312712,23.997682 C183.793382,25.1676664 183.208655,26.1116825 182.559814,26.8277881 C181.90969,27.5438936 181.180705,28.0838864 180.371576,28.4471189 C179.562447,28.8103515 178.678304,29.0926499 177.719147,29.2946615 L177.359463,27.8417313 C178.278228,27.619648 179.057864,27.3574213 179.697088,27.0550512 C180.336313,26.7520337 180.87103,26.3590173 181.300599,25.8747073 C181.730168,25.3903972 182.114216,24.7442188 182.454665,23.937467 L183.08307,22.4362379 C183.079314,22.4413652 183.075546,22.4465044 183.071765,22.4516554 L176.670229,7.26049576 L178.618036,7.26049576 Z" id="Fill-23"></path>
                        </g>
                        <g id="Group-28" transform="translate(0.000000, 9.273470)">
                            <mask id="mask-4" fill="white">
                                <use xlink:href="#path-3"></use>
                            </mask>
                            <g id="Clip-27"></g>
                            <polygon id="Fill-26" fill="#FFFFFF" mask="url(#mask-4)" points="-1.36532615 44.8300515 44.3946822 44.8300515 44.3946822 -1.3814169 -1.36532615 -1.3814169"></polygon>
                        </g>
                        <g id="Group-31" transform="translate(9.173867, 0.009065)">
                            <mask id="mask-6" fill="white">
                                <use xlink:href="#path-5"></use>
                            </mask>
                            <g id="Clip-30"></g>
                            <polygon id="Fill-29" fill="#FFFFFF" mask="url(#mask-6)" points="-1.37141875 44.7663079 44.3885896 44.7663079 44.3885896 -1.44516053 -1.37141875 -1.44516053"></polygon>
                        </g>
                    </g>
                </g>
            </g>
        </g>
    </g>
</svg>