<svg xmlns="http://www.w3.org/2000/svg" width="49" height="49" viewBox="0 0 49 49">
    <g fill="#202344" fill-rule="evenodd">
        <path d="M34.35 10.35h-4.5c-2.484.002-4.498 2.016-4.5 4.5v4.5c.002 2.484 2.016 4.498 4.5 4.5h4.5c2.484-.002 4.498-2.016 4.5-4.5v-4.5c-.002-2.484-2.016-4.498-4.5-4.5zm1.5 9c0 .398-.157.78-.438 1.062-.282.28-.664.438-1.062.438h-4.5c-.827 0-1.5-.673-1.5-1.5v-4.5c0-.827.673-1.5 1.5-1.5h4.5c.398 0 .78.157 1.062.438.28.282.438.664.438 1.062v4.5zM23.85 14.85c-.002-2.484-2.016-4.498-4.5-4.5h-4.5c-2.484.002-4.498 2.016-4.5 4.5v4.5c.002 2.484 2.016 4.498 4.5 4.5h4.5c2.484-.002 4.498-2.016 4.5-4.5v-4.5zm-3 4.5c0 .398-.157.78-.438 1.062-.282.28-.664.438-1.062.438h-4.5c-.827 0-1.5-.673-1.5-1.5v-4.5c0-.827.673-1.5 1.5-1.5h4.5c.398 0 .78.157 1.062.438.28.282.438.664.438 1.062v4.5zM25.35 34.35c.002 2.484 2.016 4.498 4.5 4.5h4.5c2.484-.002 4.498-2.016 4.5-4.5v-4.5c-.002-2.484-2.016-4.498-4.5-4.5h-4.5c-2.484.002-4.498 2.016-4.5 4.5v4.5zm3-4.5c0-.827.673-1.5 1.5-1.5h4.5c.398 0 .78.157 1.062.438.28.282.438.664.438 1.062v4.5c0 .398-.157.78-.438 1.062-.282.28-.664.438-1.062.438h-4.5c-.827 0-1.5-.673-1.5-1.5v-4.5zM19.35 25.35h-4.5c-2.484.002-4.498 2.016-4.5 4.5v4.5c.002 2.484 2.016 4.498 4.5 4.5h4.5c2.484-.002 4.498-2.016 4.5-4.5v-4.5c-.002-2.484-2.016-4.498-4.5-4.5zm1.5 9c0 .398-.157.78-.438 1.062-.282.28-.664.438-1.062.438h-4.5c-.827 0-1.5-.673-1.5-1.5v-4.5c0-.827.673-1.5 1.5-1.5h4.5c.398 0 .78.157 1.062.438.28.282.438.664.438 1.062v4.5zM38.13 9.893c.008.04.024.075.033.112.014.059.03.115.052.169.016.042.042.08.063.12.021.046.047.093.075.14.042.059.09.115.139.169.016.019.028.04.046.056.02.019.047.038.07.059.05.047.102.089.158.126.049.033.103.061.157.087.033.016.065.038.098.052.068.028.136.049.206.065.026.007.047.017.075.021.099.02.197.03.298.03h6c.827 0 1.5-.672 1.5-1.5 0-.827-.673-1.5-1.5-1.5h-2.379l4.939-4.937c.57-.589.562-1.524-.017-2.103-.579-.579-1.514-.588-2.102-.019L41.1 5.98v-2.38c0-.826-.673-1.5-1.5-1.5-.828 0-1.5.674-1.5 1.5v6c0 .1.009.198.03.294zM9.6 2.1c-.827 0-1.5.673-1.5 1.5v2.377L3.16 1.038C2.88.75 2.495.584 2.094.581c-.403-.004-.79.155-1.073.438-.286.286-.443.673-.44 1.074.004.403.168.787.459 1.066L5.979 8.1H3.6c-.827 0-1.5.673-1.5 1.5s.673 1.5 1.5 1.5h6c.098 0 .197-.01.293-.03.04-.008.075-.024.112-.033h.003c.056-.014.112-.033.166-.052.042-.019.082-.042.122-.063.047-.024.092-.05.136-.075.061-.045.12-.092.173-.143.017-.017.038-.028.054-.045.017-.016.04-.049.061-.075.045-.047.087-.096.125-.15.032-.051.06-.105.086-.161.017-.033.038-.064.05-.096h.002c.026-.066.047-.136.063-.207.007-.025.017-.047.021-.075h.003c.018-.1.03-.201.028-.304V3.6c0-.827-.67-1.5-1.498-1.5zM1.04 48.16c.584.586 1.536.586 2.12 0L8.1 43.22v2.38c0 .827.672 1.5 1.5 1.5.827 0 1.5-.673 1.5-1.5v-6c0-.1-.01-.198-.03-.296-.008-.04-.024-.075-.034-.113v.003c-.014-.059-.03-.115-.051-.169-.016-.042-.042-.08-.063-.12-.021-.049-.047-.093-.075-.14-.043-.059-.09-.117-.139-.169-.016-.019-.028-.04-.047-.056-.018-.019-.046-.038-.07-.059-.05-.047-.1-.089-.157-.129-.05-.03-.103-.058-.157-.084-.033-.016-.066-.038-.098-.052v-.002c-.068-.026-.136-.047-.207-.063-.025-.007-.046-.017-.075-.021-.1-.021-.201-.03-.304-.03H3.6c-.828 0-1.5.672-1.5 1.5 0 .827.672 1.5 1.5 1.5h2.379L1.04 46.04c-.586.583-.586 1.535 0 2.119zM48.16 46.04L43.22 41.1h2.38c.827 0 1.5-.673 1.5-1.5 0-.828-.673-1.5-1.5-1.5h-6c-.1 0-.198.01-.296.03-.04.007-.075.024-.113.033-.056.014-.112.033-.166.052-.042.018-.082.042-.122.063-.047.023-.094.05-.138.075-.061.044-.117.091-.171.143-.017.016-.038.028-.054.044-.017.017-.04.05-.061.075-.045.047-.087.096-.124.15-.033.052-.064.106-.09.162-.016.033-.037.063-.049.096-.025.066-.049.136-.065.206-.007.026-.017.047-.021.075-.021.101-.03.202-.03.305v5.99c0 .828.672 1.5 1.5 1.5.829 0 1.5-.672 1.5-1.5v-2.376l4.937 4.939h.003c.588.567 1.523.56 2.102-.02.58-.578.586-1.513.017-2.102z"/>
    </g>
</svg>
