<svg xmlns="http://www.w3.org/2000/svg" width="45" height="46" viewBox="0 0 45 46">
    <g fill="#202344" fill-rule="evenodd">
        <path d="M43.75.5h-33.4c-.35 0-.65.15-.9.35L.35 10c-.2.2-.35.55-.35.85v33.4c0 .7.55 1.25 1.25 1.25h33.4c.35 0 .65-.15.9-.35l9.1-9.15c.25-.25.35-.55.35-.9V1.75C45 1.051 44.45.5 43.75.5zM10.9 3h14.5l-7.5 7.5H3.4L10.9 3zm22.85 40H2.5V11.75h31.301V43h-.051zm.35-32.5H19.6L27.1 3h14.5l-7.5 7.5zm8.4 24.1L35 42.1V11.4l7.5-7.5v30.7z"/>
        <path d="M9 27c0 5.205 4.255 9.5 9.526 9.5C23.794 36.5 28 32.205 28 27s-4.255-9.5-9.474-9.5C13.306 17.5 9 21.744 9 27zm16.467 0c0 3.841-3.141 6.974-6.993 6.974-3.851 0-6.992-3.133-6.992-6.974s3.192-6.974 7.043-6.974c3.85 0 6.941 3.133 6.941 6.974z"/>
        <path d="M15.15 27.335c-.265-.264-.688-.264-.952 0s-.264.686 0 .95l2.007 2.005c.105.105.318.21.475.21.159 0 .317-.054.474-.21l4.648-4.642c.264-.264.264-.686 0-.95-.264-.264-.687-.264-.951 0l-4.17 4.166-1.532-1.529z"/>
    </g>
</svg>
