<svg xmlns="http://www.w3.org/2000/svg" width="75" height="64" viewBox="0 0 75 64">
    <g fill="none" fill-rule="evenodd">
        <g fill="#202344">
            <g>
                <g>
                    <g>
                        <g>
                            <path d="M48.673 34.57l-5.78-8.189c-.47-.63-1.328-.707-1.874-.157l-3.28 3.23c-.547.551-1.408.474-1.874-.157l-8.13-10.947c-.546-.708-1.563-.631-2.033.08l-13.28 21.182c-.547.787.078 1.889 1.092 1.889H43.75c1.093-2.677 2.814-5.04 4.923-6.931zM49.374 16.144c0 2.565-2.063 4.645-4.608 4.645-2.545 0-4.611-2.08-4.611-4.645 0-2.566 2.066-4.645 4.611-4.645s4.608 2.08 4.608 4.645" transform="translate(-989 -366) translate(157 129) translate(127 143) translate(705 94) translate(0 .25)"/>
                            <path d="M64.533 34.65V2.443c0-1.101-.86-2.049-2.033-2.049H2.424C1.33.394.39 1.262.39 2.443v47.8c0 1.102.937 2.049 2.033 2.049h44.531c1.718 5.906 7.11 10.238 13.516 10.238 7.813 0 14.143-6.38 14.143-14.256-.003-6.457-4.3-11.893-10.08-13.624h-.001zM4.377 4.488H60.47V34.1c-7.812 0-14.142 6.38-14.142 14.255l-41.952-.003V4.488zm56.091 54.024c-5.548 0-10.156-4.568-10.156-10.237 0-5.593 4.532-10.238 10.156-10.238 5.548 0 10.156 4.568 10.156 10.238 0 5.669-4.529 10.237-10.156 10.237z" transform="translate(-989 -366) translate(157 129) translate(127 143) translate(705 94) translate(0 .25)"/>
                            <path d="M64.764 46.306l-3.046-4.095c-.31-.393-.78-.63-1.25-.63s-.938.237-1.252.63l-3.046 4.095c-.39.474-.39 1.101-.155 1.655.235.55.78.867 1.407.867h1.25v4.645c0 1.025.782 1.812 1.798 1.812 1.017 0 1.798-.787 1.798-1.812l-.003-4.648h1.251c.626 0 1.093-.314 1.407-.867.311-.55.232-1.182-.159-1.652z" transform="translate(-989 -366) translate(157 129) translate(127 143) translate(705 94) translate(0 .25)"/>
                        </g>
                    </g>
                </g>
            </g>
        </g>
    </g>
</svg>
