<svg xmlns="http://www.w3.org/2000/svg" width="75" height="68" viewBox="0 0 75 68">
    <g fill="none" fill-rule="evenodd">
        <g fill="#202344">
            <g>
                <g>
                    <g>
                        <g>
                            <g>
                                <path d="M73.322 8.654c0-4.57-2.845-8.152-6.478-8.152-3.607 0-6.443 3.578-6.45 8.152V51.77c0 .045.007.122.007.122.01.147 1.295 14.793 6.443 14.793 5.14 0 6.433-14.642 6.443-14.793 0 0 .006-.074.006-.115l.03-43.123zm-9.304 0c.003-2.462 1.298-4.539 2.827-4.539 1.522 0 2.855 2.119 2.855 4.535l-.032 41.319h-5.65V8.654zm2.823 54.103c-.947-1.401-2.123-5.562-2.624-9.182h5.242c-.501 3.623-1.673 7.78-2.618 9.182zM51.916.502c-1.092 0-2.155.634-3.167 1.88L1.901 60.2C.694 61.692.363 63.3.992 64.614c.63 1.312 2.094 2.067 4.018 2.067h43.443c3.52 0 6.379-2.851 6.379-6.359l.003-55.797C54.838.697 52.404.502 51.915.502zm-3.46 62.57h-1.155v-2.907h-3.623v2.907h-8.406v-2.907H31.65v2.907h-8.405v-2.907h-3.62v2.907h-8.406v-2.907H7.596v2.907H5.013c-.292 0-.504-.033-.639-.065.058-.13.164-.313.353-.54L51.215 5.082v9.384H48.3v3.61h2.916v8.373H48.3v3.61h2.916v8.376H48.3v3.61h2.916v8.372H48.3v3.61h2.916v6.293c0 1.517-1.236 2.752-2.759 2.752z" transform="translate(-677 -362) translate(157 129) translate(127 143) translate(393 90) translate(.724) translate(0 .23)"/>
                                <path d="M42.206 30.498c-.722-.253-1.532-.032-2.013.57L22.945 52.352c-.437.541-.527 1.284-.225 1.91.302.628.931 1.028 1.635 1.028h17.248c1.002 0 1.811-.806 1.811-1.805V32.203c0-.768-.485-1.45-1.208-1.706zM39.791 51.68H28.145l11.646-14.37v14.37z" transform="translate(-677 -362) translate(157 129) translate(127 143) translate(393 90) translate(.724) translate(0 .23)"/>
                            </g>
                        </g>
                    </g>
                </g>
            </g>
        </g>
    </g>
</svg>
