<svg xmlns="http://www.w3.org/2000/svg" width="65" height="68" viewBox="0 0 65 68">
    <g fill="none" fill-rule="evenodd">
        <g fill="#202344">
            <g>
                <g>
                    <g>
                        <g>
                            <path d="M30.153 62.441c-2.36-1.268-4.728-2.534-7.088-3.8-2.847-1.531-5.693-3.057-8.546-4.586-2.467-1.328-4.938-2.651-7.408-3.98-1.192-.636-2.965-.78-2.634-.194V22.026c0-1.28.032-2.57 0-3.85v-.054L1.469 19.88c.981.528 1.96 1.051 2.938 1.577 2.36 1.269 4.728 2.534 7.088 3.808 2.848 1.532 5.693 3.063 8.546 4.587 2.467 1.328 4.939 2.656 7.408 3.979 1.192.645 2.373 1.322 3.579 1.924.021.005.032.022.048.027-.334-.583-.662-1.17-.992-1.756v27.831c0 1.278-.027 2.569 0 3.848v.054c0 1.063.92 2.082 2 2.033 1.088-.049 2-.894 2-2.033V37.927c0-1.279.026-2.569 0-3.848v-.054c0-.691-.374-1.423-.992-1.757l-2.939-1.577c-2.36-1.269-4.728-2.534-7.088-3.808-2.847-1.532-5.692-3.063-8.546-4.586-2.467-1.329-4.938-2.657-7.408-3.98-1.192-.645-2.381-1.3-3.578-1.924-.022-.005-.032-.021-.048-.027-1.326-.71-3.008.163-3.008 1.756v27.856c0 1.279-.027 2.57 0 3.849v.054c0 .69.373 1.423.992 1.756.981.529 1.96 1.052 2.938 1.578 2.36 1.268 4.728 2.534 7.088 3.8 2.848 1.531 5.693 3.057 8.546 4.586 2.467 1.328 4.939 2.65 7.408 3.979 1.192.645 2.382 1.295 3.579 1.924.021.006.032.022.048.027.928.494 2.218.271 2.733-.732.488-.937.275-2.252-.717-2.78-.982-.529-1.96-1.052-2.939-1.578z" transform="translate(-386 -364) translate(157 129) translate(127 143) translate(102 92) translate(.375)"/>
                            <path d="M59.684 48.663l-1.94 1.041c-2.36 1.269-4.728 2.534-7.088 3.8-2.848 1.532-5.693 3.058-8.547 4.586-2.466 1.328-4.938 2.651-7.408 3.98-1.192.636-2.405 1.252-3.578 1.924-.009.003.978-.457 2.96-1.383V37.946c0-1.279.032-2.569 0-3.848v-.054c-.334.582-.662 1.17-.992 1.756.981-.529 1.96-1.052 2.938-1.577 2.36-1.269 4.728-2.535 7.088-3.809 2.848-1.531 5.693-3.062 8.546-4.586 2.467-1.328 4.939-2.656 7.408-3.979 1.192-.645 2.405-1.252 3.579-1.924.013-.006.032-.022.048-.027L59.69 18.14v27.856c0 .897-.013 1.799-.012 2.699 0 .036 2.078.482 2.141.53.327.24 1.87.794 1.87.674V22.044c0-1.279.027-2.569 0-3.848v-.055c0-1.593-1.685-2.466-3.007-1.756-.981.529-1.96 1.052-2.939 1.578-2.36 1.268-4.727 2.534-7.087 3.808-2.848 1.531-5.693 3.063-8.547 4.586-2.466 1.328-4.938 2.656-7.408 3.979-1.191.645-2.405 1.252-3.578 1.924-.013.006-.032.022-.048.027-.613.334-.992 1.063-.992 1.757v27.831c0 1.278-.027 2.569 0 3.848v.054c0 1.594 1.685 2.467 3.008 1.756.981-.528 1.96-1.051 2.938-1.577 2.36-1.268 4.728-2.534 7.088-3.8 2.848-1.531 5.693-3.057 8.547-4.586 2.466-1.328 4.938-2.651 7.407-3.98 1.192-.636 2.405-1.251 3.579-1.924.013-.005.032-.021.048-.027.624-.331.99-1.069.99-1.788 0-.219-3.88-1.255-4.004-1.188z" transform="translate(-386 -364) translate(157 129) translate(127 143) translate(102 92) translate(.375)"/>
                            <path d="M57.743 17.946c-2.36 1.269-4.727 2.534-7.087 3.808-2.848 1.532-5.693 3.063-8.547 4.586-2.466 1.329-4.938 2.657-7.408 3.98-1.192.644-2.405 1.252-3.578 1.924-.013.005-.032.021-.048.027h2.021c-.981-.529-1.96-1.052-2.938-1.578-2.36-1.268-4.728-2.534-7.088-3.808-2.848-1.531-5.693-3.063-8.547-4.586-2.466-1.328-4.938-2.656-7.407-3.979-1.192-.645-2.374-1.314-3.579-1.924-.021-.006 1.912 2.431 2.89 1.905 2.36-1.268 4.728-2.534 7.088-3.8 2.848-1.531 5.693-3.057 8.547-4.586C24.528 8.587 27 7.265 29.47 5.936c1.192-.645 2.405-1.252 3.578-1.924.013-.006.032-.022.048-.028-.04.702.265 1.227.917 1.578 2.36 1.268 4.728 2.534 7.088 3.8 2.848 1.531 5.693 3.057 8.547 4.586 2.466 1.328 4.938 2.651 7.407 3.98 1.192.644 2.002-.954 3.2-.33.02.005 3.432-.7 2.44-1.23-.992-.536-1.978-1.062-2.973-1.599-2.368-1.273-4.733-2.542-7.106-3.816-2.859-1.531-5.712-3.068-8.573-4.602-2.459-1.323-4.92-2.643-7.386-3.963-1.179-.631-2.341-1.296-3.533-1.897-.707-.358-1.4-.366-2.102 0-.133.067-.26.14-.386.211-.614.334-1.227.656-1.835.99-2.226 1.192-4.448 2.39-6.671 3.583l-8.56 4.594c-2.565 1.377-5.133 2.76-7.7 4.133-1.408.754-2.806 1.505-4.214 2.264-.066.032-.133.067-.192.108-1.3.7-1.3 2.813 0 3.51.992.537 1.979 1.063 2.974 1.6 2.368 1.273 4.733 2.542 7.106 3.816 2.858 1.54 5.711 3.068 8.573 4.607 2.458 1.323 4.92 2.643 7.386 3.963 1.178.632 2.341 1.296 3.533 1.897.707.358 1.4.366 2.101 0 .133-.067.261-.14.387-.211.613-.333 1.226-.656 1.834-.99 2.227-1.192 4.448-2.39 6.672-3.583l8.56-4.594c2.564-1.382 5.132-2.76 7.7-4.142 1.408-.753 2.805-1.512 4.213-2.263.067-.032.133-.068.192-.108.928-.493 1.285-1.884.72-2.778-.608-.954-1.739-1.258-2.733-.73-.981.53-1.96 1.052-2.939 1.578z" transform="translate(-386 -364) translate(157 129) translate(127 143) translate(102 92) translate(.375)"/>
                            <path d="M18.292 27.847l2.939-1.577c2.36-1.269 4.727-2.534 7.087-3.808 2.848-1.532 5.693-3.063 8.547-4.586 2.466-1.329 4.938-2.657 7.408-3.98 1.192-.644 2.405-1.252 3.578-1.924.014-.005.032-.021.048-.027.928-.493 1.285-1.884.72-2.778-.608-.954-1.746-1.26-2.733-.732-.981.529-1.96 1.052-2.938 1.578-2.36 1.268-4.728 2.534-7.088 3.808-2.848 1.531-5.693 3.063-8.547 4.586-2.466 1.328-4.938 2.656-7.407 3.979-1.192.645-2.406 1.252-3.579 1.924-.013.006-.032.022-.048.027-.928.494-1.285 1.884-.72 2.779.6.954 1.739 1.26 2.733.731zM60.254 48.434L58.689 49.225 62.602 50.807 63.384 50.016 63.384 49.225 61.819 48.434z" transform="translate(-386 -364) translate(157 129) translate(127 143) translate(102 92) translate(.375)"/>
                        </g>
                    </g>
                </g>
            </g>
        </g>
    </g>
</svg>
